<?xml version="1.0" encoding="utf-8"?>
<!-- Generator: Adobe Illustrator 21.0.2, SVG Export Plug-In . SVG Version: 6.00 Build 0)  -->
<svg version="1.1" baseProfile="tiny" id="_x30__2_"
	 xmlns="http://www.w3.org/2000/svg" xmlns:xlink="http://www.w3.org/1999/xlink" x="0px" y="0px" viewBox="0 0 487.6 487.6"
	 xml:space="preserve">
<circle fill="#55368C" cx="243.8" cy="243.8" r="243"/>
<path fill="#1F2145" d="M123.8,271.8l99.9,139l70.7,70.7c99.4-21.1,176.3-102.8,190.1-204.7L336.3,128.5L225.1,93.8l-96,66
	L123.8,271.8z"/>
<polygon fill="#FFFFFF" points="245.2,146.7 234.2,153.1 236.9,140.6 227.3,132.1 240,130.8 245.2,119.1 250.4,130.8 263.1,132.1 
	253.5,140.6 256.2,153.1 "/>
<polygon fill="#FFFFFF" points="245.2,317.1 234.2,323.5 236.9,311.1 227.3,302.5 240,301.3 245.2,289.6 250.4,301.3 263.1,302.5 
	253.5,311.1 256.2,323.5 "/>
<polygon fill="#FFFFFF" points="157.2,231.9 146.2,238.3 148.9,225.8 139.4,217.3 152.1,216 157.2,204.3 162.4,216 175.1,217.3 
	165.6,225.8 168.3,238.3 "/>
<polygon fill="#FFFFFF" points="330.4,231.9 319.4,238.3 322.1,225.8 312.5,217.3 325.3,216 330.4,204.3 335.6,216 348.3,217.3 
	338.8,225.8 341.5,238.3 "/>
<polygon fill="#FFFFFF" points="286.4,160.4 275.4,166.9 278.1,154.4 268.6,145.9 281.3,144.6 286.4,132.9 291.6,144.6 304.3,145.9 
	294.8,154.4 297.5,166.9 "/>
<polygon fill="#FFFFFF" points="204,160.4 192.9,166.9 195.6,154.4 186.1,145.9 198.8,144.6 204,132.9 209.1,144.6 221.8,145.9 
	212.3,154.4 215,166.9 "/>
<polygon fill="#FFFFFF" points="286.4,306.1 275.4,312.6 278.1,300.1 268.6,291.5 281.3,290.3 286.4,278.6 291.6,290.3 304.3,291.5 
	294.8,300.1 297.5,312.6 "/>
<polygon fill="#FFFFFF" points="204,306.1 192.9,312.6 195.6,300.1 186.1,291.5 198.8,290.3 204,278.6 209.1,290.3 221.8,291.5 
	212.3,300.1 215,312.6 "/>
<polygon fill="#FFFFFF" points="173.7,273.1 162.7,279.6 165.4,267.1 155.9,258.6 168.6,257.3 173.7,245.6 178.9,257.3 191.6,258.6 
	182.1,267.1 184.8,279.6 "/>
<polygon fill="#FFFFFF" points="316.7,273.1 305.6,279.6 308.3,267.1 298.8,258.6 311.5,257.3 316.7,245.6 321.8,257.3 334.5,258.6 
	325,267.1 327.7,279.6 "/>
<polygon fill="#FFFFFF" points="173.7,190.7 162.7,197.1 165.4,184.6 155.9,176.1 168.6,174.8 173.7,163.1 178.9,174.8 191.6,176.1 
	182.1,184.6 184.8,197.1 "/>
<polygon fill="#FFFFFF" points="316.7,190.7 305.6,197.1 308.3,184.6 298.8,176.1 311.5,174.8 316.7,163.1 321.8,174.8 334.5,176.1 
	325,184.6 327.7,197.1 "/>
<path fill="#FFFFFF" d="M244.2,419.1c-8.4,0-16.3-3.8-21.6-10.4L137,302.4c-0.1-0.1-0.1-0.2-0.2-0.3c-16.6-22.7-25.5-49.6-25.6-77.8
	c-0.2-35.7,13.8-69.3,39.3-94.6c25.5-25.3,59.2-39.1,94.9-38.7c35.2,0.4,68.1,14.3,92.9,39.3c24.8,25,38.4,58.2,38.4,93.4
	c0,28.4-8.9,55.5-25.6,78.4c-0.1,0.1-0.1,0.2-0.2,0.3l-84.8,106.3C260.6,415.3,252.8,419.1,244.2,419.1
	C244.3,419.1,244.2,419.1,244.2,419.1z M149.6,292.5l85.5,106.2c2.2,2.8,5.6,4.4,9.2,4.4c0,0,0,0,0,0c3.6,0,6.9-1.6,9.2-4.4
	l84.7-106.2c14.7-20.1,22.5-43.9,22.5-68.8c0-63.7-51.8-116-115.5-116.7c-0.4,0-0.8,0-1.2,0c-30.9,0-60,12.1-82.2,34.1
	c-22.4,22.3-34.7,51.8-34.6,83.2C127.2,249,135,272.6,149.6,292.5z"/>
</svg>
