<?xml version="1.0" encoding="utf-8"?>
<!-- Generator: Adobe Illustrator 21.0.2, SVG Export Plug-In . SVG Version: 6.00 Build 0)  -->
<svg version="1.1" baseProfile="tiny" id="_x30__3_"
	 xmlns="http://www.w3.org/2000/svg" xmlns:xlink="http://www.w3.org/1999/xlink" x="0px" y="0px" viewBox="0 0 487.6 487.6"
	 xml:space="preserve">
<circle fill="#55368C" cx="243.8" cy="243.8" r="243"/>
<path fill="#1F2145" d="M482.3,290.9L362.7,171.3L212,147.2l-73.8,117.2l6.3,6.3l0.3,24.2l8.2,8.2l2.8,14.3l158.9,158.9
	C399.7,450.5,464.9,379.3,482.3,290.9z"/>
<path fill="#FFFFFF" d="M243.8,276.5c-72.7,0-98.3,29.6-98.3,29.6c26.4,38.4,98.3,37.6,98.3,37.6s71.9,0.8,98.3-37.6
	C342.1,306.1,316.6,276.5,243.8,276.5z"/>
<path fill="#FFFFFF" d="M390.2,220.8l-26-47.3c-1.6-2.9-4.3-5-7.5-5.9L249,138c-3.4-0.9-7-0.9-10.4,0l-107.7,29.6
	c-3.2,0.9-5.9,3-7.5,5.9l-26,47.3c-2.9,5.3-1.5,12,3.4,15.7l37.3,27.9l1.4-0.8c1-0.6,25-14.7,62.8-21.9
	c34.9-6.6,88.5-8.2,145.6,21.8l1.6,0.9l37.2-27.8C391.7,232.8,393.1,226.1,390.2,220.8z M277,188.9c3.2,12.4,2.4,33.5-16,34.4
	c-16.5,0.8-17.2,4.6-17.2,5.1v0c0,0,0,0.1,0,0.1s0,0,0-0.1c0-0.5-0.7-4.4-17.2-5.1c-18.4-0.8-19.2-22-16-34.4c3.2-12.4-6-16-6-16
	l3.2-8.8c29.2,7.2,36-9.2,36-9.2s6.8,16.4,36,9.2l3.2,8.8C283,172.9,273.8,176.5,277,188.9z"/>
<path fill="#FFFFFF" d="M344.4,270.3c-55.1-28.9-106.7-27.5-140.3-21.1c-36.6,6.9-60.4,20.9-60.6,21l-1.5,0.9l2.7,23.8
	c0,0,25.4-27.3,99.1-27.3c77.2,0,99.1,27.3,99.1,27.3l2.7-23.9L344.4,270.3z"/>
</svg>
