<?xml version="1.0" encoding="utf-8"?>
<!-- Generator: Adobe Illustrator 21.0.2, SVG Export Plug-In . SVG Version: 6.00 Build 0)  -->
<svg version="1.1" baseProfile="tiny" id="_x30__1_"
	 xmlns="http://www.w3.org/2000/svg" xmlns:xlink="http://www.w3.org/1999/xlink" x="0px" y="0px" viewBox="0 0 487.6 487.6"
	 xml:space="preserve">
<circle fill="#55368C" cx="243.8" cy="243.8" r="243"/>
<path fill="#1F2145" d="M126.5,231.3l56.3,56.2l-20.4,6.4l-37-37l-3.8,30.7l45,45l-4.1,4.6l-37.3-37.3l-2.6,31.7l153,153
	C387.2,470.2,475,379.9,485.7,267.1L376.3,157.7l-120.9-2.1l-10.8,31.8l-6.7-6.7l-139-4.4l7.3,7.3l-0.2,8.5l-3.1-2.9l-0.5,3.7
	L126.5,231.3z"/>
<path fill="#FFFFFF" d="M289.3,312.9c-18.7,0-31.7-13.2-37.9-23.6c-8.8-0.7-15.6,0.6-43.2,5.9c-7.7,1.5-17.3,3.3-28.9,5.5
	c-22.6,4.2-40.6,1.2-53.4-9c-16.5-13.1-17.6-33.2-17.6-34l8.5-0.4l8.5-0.4c0,0.1,0.9,13.4,11.4,21.6c8.8,6.9,22.1,8.7,39.6,5.5
	c11.5-2.2,21.1-4,28.8-5.5c32.7-6.3,38.6-7.4,52.8-5.6l4.7,0.6l2,4.4c0.4,0.9,10.5,22.4,31.2,17.2c7.5-1.9,15.1-4.2,23-6.6
	c21.5-6.6,43.7-13.4,68.3-12.6l-0.5,17c-21.7-0.7-42.6,5.7-62.8,11.9c-7.8,2.4-16,4.9-23.9,6.9C296.2,312.5,292.7,312.9,289.3,312.9
	z"/>
<path fill="#FFFFFF" d="M289.3,355.9c-18.7,0-31.7-13.2-37.9-23.6c-8.8-0.7-15.6,0.6-43.2,5.9c-7.7,1.5-17.3,3.3-28.9,5.5
	c-22.6,4.2-40.6,1.2-53.4-9c-16.5-13.1-17.6-33.2-17.6-34l8.5-0.4l8.5-0.4c0,0.1,0.9,13.4,11.4,21.6c8.8,6.9,22.1,8.7,39.6,5.5
	c11.5-2.2,21.1-4,28.8-5.5c32.7-6.3,38.6-7.4,52.8-5.6l4.7,0.6l2,4.4c0.4,0.9,10.5,22.4,31.2,17.2c7.5-1.9,15.1-4.2,23-6.6
	c21.5-6.6,43.7-13.4,68.3-12.6l-0.5,17c-21.7-0.7-42.6,5.7-62.8,11.9c-7.8,2.4-16,4.9-23.9,6.9C296.2,355.5,292.7,355.9,289.3,355.9
	z"/>
<g>
	<path fill="#FFFFFF" d="M101.3,177.4l4.5,0.3l-0.8,11.6l0,0c-0.1,2.2,1.6,3.7,3.5,3.7c1.9,0,3.5-1.5,3.5-3.5l0.8-11.4l32.9,2.2
		l-0.8,11.4c-0.1,2.2,1.6,3.7,3.5,3.7c1.9,0,3.5-1.6,3.5-3.5h0l0.7-11.2l32.9,2.2l-0.8,11.4l0,0c-0.1,2.2,1.6,3.7,3.5,3.7
		c1.9,0,3.5-1.6,3.5-3.5h0l0.7-11.1l32.9,2.2l-0.7,11.2l0,0c-0.1,2.2,1.6,3.7,3.5,3.7c1.9,0,3.5-1.6,3.5-3.5h0l0.7-11l2.5,0.2
		c1.9,0.1,3.6-1.3,3.7-3.3c0.1-1.9-1.3-3.6-3.3-3.7l-133.7-8.9c-1.9-0.1-3.6,1.3-3.7,3.3S99.4,177.3,101.3,177.4z"/>
	<path fill="#FFFFFF" d="M374.4,206.3l2.2-48.8l-122.9-6.1l-13.5,46.4l-6.4-0.4c-0.2,2.9-2.6,5.2-5.5,5.2c-3,0-5.5-2.5-5.5-5.5
		c0-0.1,0-0.2,0-0.4l-29-1.8c-0.2,2.9-2.6,5.1-5.5,5.1c-3,0-5.5-2.5-5.5-5.5c0-0.1,0-0.2,0-0.3l-29-1.8c-0.2,2.8-2.6,5.1-5.5,5.1
		c-3,0-5.5-2.5-5.5-5.5c0-0.1,0-0.2,0-0.3l-29-1.8c-0.2,2.9-2.6,5.1-5.5,5.1c-3,0-5.5-2.5-5.5-5.5c0-0.1,0-0.2,0-0.3l-5.7-0.4
		l16,25.7c19.9,32,54.8,47.6,92.5,48.1l174.5,3.2l2-59L374.4,206.3z M286,181.4l-31.7-1.8l5.3-20.1l27.9,1.6L286,181.4z
		 M326.6,183.7l-31.7-1.8l1.5-20.3l31.7,1.8L326.6,183.7z M365.8,186l-31.7-1.8l1.5-20.3l31.7,1.8L365.8,186z"/>
</g>
</svg>
