<?xml version="1.0" encoding="utf-8"?>
<!-- Generator: Adobe Illustrator 21.0.2, SVG Export Plug-In . SVG Version: 6.00 Build 0)  -->
<svg version="1.1" baseProfile="tiny" id="_x30__4_"
	 xmlns="http://www.w3.org/2000/svg" xmlns:xlink="http://www.w3.org/1999/xlink" x="0px" y="0px" viewBox="0 0 487.6 487.6"
	 xml:space="preserve">
<circle fill="#55368C" cx="243.8" cy="243.8" r="243"/>
<path fill="#1F2145" d="M353.1,162.3l-96.5,26L233,164.7l-89.9,86l15.3,53L327,472.2c78.8-28.7,138.6-97,155.2-180.9L353.1,162.3z"
	/>
<path fill="#FFFFFF" d="M395.7,273.2C395.7,273.2,395.7,273.2,395.7,273.2l-28,0l-14.8,0c0,0,0,0,0,0h-52.8
	c-6.6,0-12.6-3.7-15.6-9.6l-6.3-12.6l-16.5,42.7c-1.7,4.5-5.9,7.4-10.8,7.4c0,0-0.1,0-0.1,0c-4.9,0-9.1-3-10.7-7.6l-21.4-58.6l-8,26
	c-2.3,7.4-9,12.3-16.7,12.3h-30.9c-4.8,0-8.8-3.9-8.8-8.8s3.9-8.8,8.8-8.8H194l13.1-43c1.5-4.7,5.8-8,10.7-8.1
	c5-0.2,9.4,2.9,11.1,7.6l22.1,60.4l15.7-40.5c1.6-4.2,5.6-7.1,10.2-7.4c4.5-0.2,8.8,2.3,10.9,6.4l12.4,24.8l62.6,0
	c6.3-13.2,10.1-27,10.1-41.2c0-97.2-129.6-84.2-129.6-23.1c0-61.1-129.6-74.1-129.6,23.1c0,83.3,129.6,153.7,129.6,153.7
	s58.1-31.6,96.5-77.4h55.9c4.8,0,8.8-3.9,8.8-8.8C404.4,277.1,400.5,273.2,395.7,273.2z"/>
</svg>
