<?xml version="1.0" encoding="utf-8"?>
<!-- Generator: Adobe Illustrator 21.0.2, SVG Export Plug-In . SVG Version: 6.00 Build 0)  -->
<svg version="1.1" baseProfile="tiny" id="_x30__5_"
	 xmlns="http://www.w3.org/2000/svg" xmlns:xlink="http://www.w3.org/1999/xlink" x="0px" y="0px" viewBox="0 0 487.6 487.6"
	 xml:space="preserve">
<circle fill="#55368C" cx="243.8" cy="243.8" r="243"/>
<path fill="#1F2145" d="M348.7,164.8L481,297.1c3.8-17.1,5.9-34.9,5.9-53.2c0-4.4-0.1-8.8-0.4-13.2L377.6,121.7L348.7,164.8z"/>
<path fill="#1F2145" d="M234.2,279.1L133.4,366L254,486.6c107.4-4.4,196.8-78.6,224.2-178.3L319.7,149.8l-69-15.8l-51.5,21l-32,45
	l113.9,113.9l-5.6,6.4L234.2,279.1z"/>
<path fill="#FFFFFF" d="M227.7,371.3c-29.2,0-38.1-14.7-39-16.4l12.3-6.7c0,0,0-0.1-0.1-0.2c0.2,0.4,6,9.3,26.8,9.3
	c24.2,0,30.3-10.9,41.5-30.8c3.6-6.3,7.6-13.5,12.7-21.1c5.4-8.1,12.4-15.3,19.2-22.3c16.3-16.9,31.7-32.8,31.7-62.8
	c0-39.2-21-81-80-81c-57.9,0-73.1,57.1-73.2,57.7c-1,3.7-4.8,6-8.5,5.1c-3.7-1-6-4.8-5.1-8.5c0.2-0.7,4.5-17.3,17.2-34
	c11.9-15.6,33.6-34.3,69.6-34.3c31.2,0,56.4,10.7,72.9,30.8c13.6,16.6,21.1,39.4,21.1,64.2c0,35.6-18.9,55.2-35.6,72.5
	c-6.6,6.8-12.8,13.3-17.6,20.4c-4.8,7.1-8.7,14-12.1,20.1C269.5,354.6,260.1,371.3,227.7,371.3z"/>
<path fill="#FFFFFF" d="M288.4,271.4c-1.7,0-3.5-0.6-4.8-1.9c-2.8-2.7-2.9-7.1-0.2-9.9c10.4-10.9,18.4-20.6,18.4-37.9
	c0-12-3.6-51-50.3-51c-16.7,0-29.8,7.2-39.1,21.5c-2.1,3.2-6.4,4.2-9.7,2.1c-3.2-2.1-4.2-6.4-2.1-9.7c8.2-12.7,23.7-27.9,50.8-27.9
	c47.5,0,64.3,35,64.3,65c0,24.3-13.4,38.3-22.3,47.5C292,270.7,290.2,271.4,288.4,271.4z"/>
<path fill="#FFFFFF" d="M215,259.3L128.3,346c-4.2,4.2-4.2,10.9,0,15.1l4.4,4.4c4.2,4.2,10.9,4.2,15.1,0l86.7-86.7L215,259.3z"/>
<path fill="#FFFFFF" d="M377.1,121l-4.4-4.4c-4.2-4.2-10.9-4.2-15.1,0l-26.5,26.5c6.7,6.3,12.5,13.6,17.3,21.5l28.6-28.6
	C381.2,131.9,381.2,125.1,377.1,121z"/>
</svg>
