<?xml version="1.0" encoding="utf-8"?>
<!-- Generator: Adobe Illustrator 21.0.2, SVG Export Plug-In . SVG Version: 6.00 Build 0)  -->
<svg version="1.1" baseProfile="tiny" id="_x30_" xmlns="http://www.w3.org/2000/svg" xmlns:xlink="http://www.w3.org/1999/xlink"
	 x="0px" y="0px" viewBox="0 0 487.6 487.6" xml:space="preserve">
<circle fill="#55368C" cx="243.8" cy="243.8" r="243"/>
<path fill="#1F2145" d="M477,312.4L274.1,109.4L200,188l-23.6-23.6l-9.7,163.3l148.1,148.5C392.8,452.5,454,390.6,477,312.4z"/>
<path fill="#FFFFFF" d="M204,365.4c0,0-115.8-51.8-27.4-201.2c0,0-6.1,30.5,15.2,42.7c0,0,0-67.1,82.3-97.5
	c0,0-27.4,73.2,21.3,112.8c0,0,0-24.4,24.4-36.6c0,0-6.1,27.4,12.2,54.9s24.4,94.5-42.7,125c0,0,21.3-33.5,3-67.1
	c-18.3-33.5-15.2-51.8-15.2-51.8s-9.1,27.4-21.3,39.6c0,0-36.6-30.5-33.5-61C222.3,225.2,161.4,277,204,365.4z"/>
</svg>
